<svg width="232" height="155" viewBox="0 0 232 155" fill="none" xmlns="http://www.w3.org/2000/svg">
<path d="M193.333 135.333C203.967 135.333 212.667 126.633 212.667 116V19.3333C212.667 8.7 203.967 0 193.333 0H38.6667C28.0333 0 19.3333 8.7 19.3333 19.3333V116C19.3333 126.633 28.0333 135.333 38.6667 135.333H9.66667C4.35 135.333 0 139.683 0 145C0 150.317 4.35 154.667 9.66667 154.667H222.333C227.65 154.667 232 150.317 232 145C232 139.683 227.65 135.333 222.333 135.333H193.333ZM48.3333 19.3333H183.667C188.983 19.3333 193.333 23.6833 193.333 29V106.333C193.333 111.65 188.983 116 183.667 116H48.3333C43.0167 116 38.6667 111.65 38.6667 106.333V29C38.6667 23.6833 43.0167 19.3333 48.3333 19.3333Z" fill="white"/>
</svg>
