<svg width="247" height="247" viewBox="0 0 247 247" fill="none" xmlns="http://www.w3.org/2000/svg">
<path d="M159.521 10.2915H77.1874C62.9849 10.2915 51.4583 21.8182 51.4583 36.0207V210.979C51.4583 225.181 62.9849 236.708 77.1874 236.708H159.521C173.723 236.708 185.25 225.181 185.25 210.979V36.0207C185.25 21.8182 173.723 10.2915 159.521 10.2915ZM118.354 226.416C109.812 226.416 102.917 219.521 102.917 210.979C102.917 202.437 109.812 195.541 118.354 195.541C126.896 195.541 133.792 202.437 133.792 210.979C133.792 219.521 126.896 226.416 118.354 226.416ZM164.667 185.25H72.0416V41.1665H164.667V185.25Z" fill="white"/>
</svg>
