<svg width="176" height="223" viewBox="0 0 176 223" fill="none" xmlns="http://www.w3.org/2000/svg">
<path d="M152.627 0H23.1254C10.3602 0 0 10.3602 0 23.1254V198.878C0 211.643 10.3602 222.003 23.1254 222.003H152.627C165.393 222.003 175.753 211.643 175.753 198.878V23.1254C175.753 10.3602 165.393 0 152.627 0ZM87.8763 212.753C80.1987 212.753 74.0011 206.556 74.0011 198.878C74.0011 191.2 80.1987 185.003 87.8763 185.003C95.554 185.003 101.752 191.2 101.752 198.878C101.752 206.556 95.554 212.753 87.8763 212.753ZM157.252 175.753H18.5003V27.7504H157.252V175.753Z" fill="white"/>
</svg>
