<svg width="232" height="226" viewBox="0 0 232 226" fill="none" xmlns="http://www.w3.org/2000/svg">
<path d="M61.2336 133.602C55.7776 128.953 51.491 123.787 48.3737 118.103C45.3213 112.476 43.4346 106.664 42.7136 100.668C42.1129 94.6631 42.7573 88.7097 44.6467 82.8083C46.5361 76.9069 49.6946 71.3581 54.1221 66.1619C58.5497 60.9657 63.5268 56.9665 69.0536 54.1644C74.6452 51.4176 80.4581 49.9243 86.4921 49.6845C92.5815 49.3797 98.6792 50.3152 104.785 52.491C110.956 54.722 116.834 58.2174 122.42 62.977C125.603 65.6889 128.388 68.7351 130.777 72.1157C133.286 75.4867 135.24 79.1139 136.64 82.9972C138.16 86.8709 139.061 90.9454 139.341 95.2207L114.238 99.2233C114.269 97.3443 114.023 95.3967 113.499 93.3804C113.039 91.4196 112.187 89.4599 110.941 87.5013C109.815 85.5331 108.181 83.6358 106.037 81.8095C103.829 79.9278 101.386 78.5188 98.7081 77.5825C96.1507 76.6367 93.5163 76.2418 90.8048 76.3978C88.1583 76.6092 85.5274 77.3944 82.912 78.7534C80.2966 80.1123 77.8266 82.1558 75.5022 84.8838C73.3991 87.352 71.9119 89.9526 71.0406 92.6856C70.1693 95.4186 69.9043 98.1637 70.2456 100.921C70.5869 103.678 71.5296 106.387 73.0739 109.048C74.6181 111.71 76.7542 114.202 79.4822 116.527C81.4308 118.187 83.531 119.472 85.7828 120.382C88.0346 121.292 90.2624 121.901 92.4661 122.209C94.7252 122.452 96.8725 122.432 98.9079 122.148L95.4944 146.482C92.256 146.862 88.6315 146.577 84.621 145.626C80.6105 144.675 76.5567 143.183 72.4598 141.149C68.4181 139.051 64.6761 136.535 61.2336 133.602Z" fill="#05D2FF"/>
<path d="M102.24 194V104.4H129.888V194H102.24ZM115.424 162.512V140.752H161.888V162.512H115.424ZM115.424 127.952V104.4H166.624V127.952H115.424Z" fill="white"/>
</svg>
